<?xml version="1.0" encoding="utf-8"?>
<!-- Generator: Adobe Illustrator 20.1.0, SVG Export Plug-In . SVG Version: 6.00 Build 0)  -->
<svg version="1.1" id="Calque_1" xmlns="http://www.w3.org/2000/svg" xmlns:xlink="http://www.w3.org/1999/xlink" x="0px" y="0px"
	 viewBox="0 0 530 512" style="enable-background:new 0 0 530 512;" xml:space="preserve">
<style type="text/css">
	.st0{fill:white;stroke:white;stroke-width:10;}
</style>
<g transform="matrix(1.50674,0,0,1.50674,-18.9116,-26.0527)">
	<path class="st0" d="M242.3,39.1h-104C72.1,39.3,17.9,93.8,17.9,159.9c0,50.1,31.2,95.2,78,113v50.2c0.1,5.2,3.4,9.8,8.4,11.5
		c1.2,0.5,2.6,0.7,3.9,0.7c3.2,0,6.3-1.4,8.4-3.9l50.3-50.3h75.4c64.2-3,115.4-56.7,115.4-121S306.5,42.1,242.3,39.1z M242.3,268.5
		h-80.5l-52.9,52.9v-57.7l-4.4-1.5c-44.7-14.1-75.3-55.9-75.3-102.8c0-59.1,48.7-107.8,107.8-107.8c0.4,0,0.9,0,1.3,0h104
		C300.8,53,348.2,101.5,348.2,160s-47.4,107-105.9,108.3V268.5z"/>
	<rect x="116.8" y="145.3" class="st0" width="28.6" height="28.6"/>
	<rect x="175.6" y="145.3" class="st0" width="28.6" height="28.6"/>
	<rect x="234.4" y="145.3" class="st0" width="28.6" height="28.6"/>
</g>
</svg>
