<svg viewBox="0 0 500 500" xmlns="http://www.w3.org/2000/svg" fill-rule="evenodd" clip-rule="evenodd" stroke-linejoin="round" stroke-miterlimit="1.414"><path d="M494.978 246.132C491.111 113.339 382.814 7.621 250.021 5.042 114.65 2.464 7.642 118.496 5.064 250 2.485 385.371 118.518 492.378 250.021 494.957c134.082 2.578 239.8-110.876 244.957-241.09v-7.735z" fill="#9c0" fill-rule="nonzero"/><path d="M226.815 306.726v-9.024c0-14.182 2.578-24.496 6.446-33.521 3.868-9.024 11.603-18.049 23.206-28.363 15.471-12.893 25.785-23.207 29.653-29.653 3.868-6.446 5.157-15.471 5.157-24.496 0-11.603-3.868-20.628-11.603-27.074-7.736-6.446-18.05-10.314-33.521-10.314-9.024 0-18.049 1.289-27.074 3.868-9.025 2.578-19.339 6.446-29.653 11.603l-10.314-23.206c21.918-11.604 45.124-16.761 69.62-16.761 21.917 0 39.967 5.157 51.57 16.761 12.892 10.314 18.049 25.785 18.049 46.413 0 9.024-1.289 15.471-3.867 21.917-2.579 6.446-5.157 12.892-10.314 18.049-3.868 5.157-14.182 15.471-28.364 28.364-11.603 10.314-19.339 18.049-23.206 24.496-3.868 6.446-5.157 15.471-5.157 27.074v5.157h-20.628v-1.29zm-9.025 52.86c0-15.471 6.446-23.207 20.628-23.207 6.446 0 11.603 2.579 15.471 6.446 3.868 3.868 5.157 10.314 5.157 18.05 0 7.735-1.289 12.892-5.157 16.76-3.868 3.868-9.025 6.446-15.471 6.446s-11.603-1.289-15.471-5.157c-2.579-5.157-5.157-11.603-5.157-19.338z" fill="#fff" fill-rule="nonzero"/><path d="M238.597 331.867l.357.005.355.009.354.013.352.018.35.022.348.027.347.03.345.036.343.039.341.044.339.048.338.052.335.056.334.061.331.064.33.069.327.072.326.077.323.081.321.084.319.089.317.092.315.097.313.1.31.103.308.108.306.111.304.115.301.118.299.122.296.125.295.129.292.132.289.135.287.139.285.142.282.145.28.149.277.151.275.155.273.158.269.16.268.164.265.166.262.169.26.172.258.175.254.178.132.093.246.178.248.184.246.187.244.188.241.192.238.194.236.196.233.199.231.2.229.203.225.206.224.207.22.21.219.211.216.214.244.25.24.255.233.258.228.263.222.268.217.271.21.274.205.279.2.282.194.285.188.289.183.291.178.295.172.297.168.301.161.303.158.306.151.308.147.31.142.313.138.315.133.318.128.319.123.322.12.324.115.325.11.329.107.329.103.332.098.333.095.335.091.337.087.339.083.341.08.342.076.344.073.346.069.347.066.349.064.356.059.347.057.353.053.356.05.357.048.358.045.36.041.362.039.363.037.364.033.366.031.368.029.369.026.37.023.372.021.374.018.374.017.376.014.378.011.379.01.38.007.381.005.383.003.384.001.386-.001.385-.003.382-.005.378-.007.377-.01.373-.012.371-.014.368-.016.366-.019.363-.021.36-.024.358-.026.356-.029.353-.031.351-.034.349-.037.347-.04.344-.043.342-.045.34-.049.338-.051.331-.028.173-.028.166-.029.166-.029.166-.03.165-.032.165-.032.164-.032.165-.034.162-.035.163-.035.162-.036.162-.038.162-.038.161-.039.16-.04.16-.041.16-.041.158-.043.159-.044.158-.045.157-.045.158-.047.157-.047.155-.049.156-.05.155-.05.155-.052.154-.053.154-.053.153-.055.153-.056.152-.057.151-.058.152-.059.151-.06.15-.061.149-.062.149-.063.149-.065.148-.065.147-.067.147-.067.147-.069.145-.07.146-.071.144-.072.144-.074.144-.074.143-.076.142-.077.141-.077.141-.079.141-.081.14-.081.138-.082.139-.084.138-.084.137-.086.136-.087.136-.088.135-.089.134-.091.134-.091.133-.093.132-.093.131-.095.131-.096.13-.097.129-.098.129-.1.128-.1.127-.101.126-.103.125-.103.124-.105.124-.106.123-.107.123-.108.122-.109.12-.109.12-.111.119-.112.119-.113.117-.114.117-.117.118-.214.211-.218.212-.221.21-.224.207-.225.205-.229.203-.231.201-.233.199-.236.196-.238.194-.241.191-.244.189-.246.187-.248.184-.246.177-.132.094-.127.089-.128.089-.128.087-.129.087-.13.087-.13.085-.131.085-.131.085-.132.083-.133.083-.133.082-.135.081-.134.081-.136.08-.136.079-.136.079-.137.078-.138.076-.138.076-.139.076-.14.074-.14.074-.141.073-.141.073-.142.071-.143.07-.143.071-.144.068-.144.068-.145.068-.146.066-.146.066-.147.065-.148.064-.147.063-.149.062-.149.061-.15.061-.151.06-.15.058-.152.058-.152.057-.153.056-.153.055-.153.054-.155.053-.155.053-.155.051-.156.051-.157.049-.157.049-.158.047-.158.047-.159.046-.159.044-.16.044-.16.043-.161.042-.161.041-.162.039-.163.039-.163.038-.164.037-.163.036-.165.035-.165.033-.165.033-.166.032-.167.031-.167.03-.168.028-.167.028-.169.026-.169.026-.17.025-.169.023-.17.022-.171.022-.171.02-.172.019-.172.018-.173.017-.173.016-.174.015-.174.014-.174.013-.175.011-.175.011-.176.009-.176.009-.177.007-.177.006-.177.005-.178.004-.179.003-.178.001-.179.001-.33-.001-.329-.003-.327-.006-.327-.007-.326-.01-.324-.012-.324-.014-.322-.017-.322-.019-.32-.022-.319-.024-.319-.027-.317-.03-.317-.032-.315-.035-.315-.038-.313-.041-.313-.043-.312-.047-.31-.05-.31-.052-.309-.056-.307-.059-.307-.063-.305-.066-.299-.068-.158-.037-.152-.037-.151-.037-.151-.039-.151-.04-.15-.04-.151-.041-.149-.042-.15-.044-.15-.044-.148-.045-.15-.046-.148-.047-.148-.047-.148-.049-.148-.05-.147-.051-.147-.052-.146-.053-.147-.054-.146-.054-.145-.056-.145-.057-.145-.058-.145-.059-.144-.06-.143-.061-.144-.062-.143-.063-.142-.064-.142-.066-.142-.066-.141-.067-.141-.069-.141-.07-.14-.07-.139-.072-.139-.073-.139-.074-.138-.075-.138-.076-.137-.077-.136-.079-.137-.08-.135-.08-.135-.082-.135-.083-.134-.084-.133-.085-.133-.086-.133-.088-.131-.088-.131-.089-.131-.091-.13-.092-.13-.093-.129-.094-.128-.095-.127-.097-.127-.097-.127-.099-.126-.1-.124-.1-.124-.102-.124-.103-.123-.104-.122-.105-.122-.107-.121-.107-.121-.109-.119-.109-.119-.111-.118-.112-.117-.113-.117-.114-.632-.627-.457-.916-.127-.258-.128-.261-.127-.263-.128-.266-.128-.268-.127-.271-.128-.273-.126-.276-.127-.278-.126-.281-.126-.283-.125-.286-.125-.289-.124-.29-.123-.294-.122-.295-.122-.299-.12-.3-.12-.304-.118-.306-.117-.308-.116-.311-.114-.313-.113-.316-.112-.318-.11-.32-.108-.324-.107-.326-.105-.328-.103-.33-.102-.333-.099-.336-.097-.338-.095-.341-.093-.343-.091-.345-.088-.348-.086-.351-.084-.352-.081-.356-.078-.357-.076-.361-.072-.362-.07-.365-.066-.363-.034-.189-.031-.185-.031-.186-.03-.187-.03-.186-.028-.188-.028-.188-.027-.189-.026-.189-.025-.19-.024-.191-.024-.191-.023-.192-.022-.192-.02-.192-.021-.194-.019-.194-.018-.194-.017-.195-.017-.196-.015-.197-.015-.196-.013-.198-.013-.198-.012-.198-.011-.199-.009-.2-.009-.2-.008-.201-.007-.201-.005-.202-.005-.202-.004-.203-.002-.204-.002-.204-.001-.206.002-.389.004-.389.006-.386.009-.384.012-.381.014-.38.017-.377.019-.374.023-.373.024-.37.028-.368.03-.366.034-.363.035-.361.039-.36.042-.356.044-.355.047-.352.05-.351.053-.347.056-.346.059-.344.061-.341.065-.339.068-.337.069-.33.038-.172.037-.166.039-.165.038-.165.04-.165.041-.164.041-.163.042-.162.043-.163.043-.161.045-.161.045-.161.046-.16.047-.159.047-.159.049-.158.049-.158.05-.157.051-.157.052-.156.053-.155.053-.155.054-.154.055-.154.057-.153.056-.153.058-.152.059-.151.059-.151.06-.15.061-.149.063-.149.063-.149.064-.148.064-.147.066-.146.066-.146.068-.146.068-.144.069-.145.07-.143.071-.143.072-.142.073-.141.073-.141.075-.141.076-.139.076-.139.078-.139.078-.137.079-.137.08-.136.081-.136.082-.135.083-.134.084-.133.085-.133.085-.132.087-.131.088-.13.088-.13.09-.13.09-.128.092-.127.092-.127.093-.126.094-.125.095-.125.096-.124.097-.122.098-.122.099-.122.099-.12.101-.12.101-.119.103-.118.103-.117.104-.116.105-.115.106-.115.107-.114.108-.113.109-.112.11-.111.11-.11.111-.109.113-.109.113-.107.114-.107.115-.106.116-.105.116-.103.118-.103.118-.102.119-.101.12-.101.121-.099.122-.098.122-.097.123-.096.124-.096.125-.094.126-.094.126-.092.127-.092.128-.09.129-.089.129-.089.13-.087.132-.087.132-.086.132-.084.133-.084.134-.082.134-.081.136-.081.136-.08.137-.079.138-.077.138-.076.138-.076.14-.074.14-.074.141-.073.142-.071.142-.071.143-.069.143-.069.144-.067.145-.067.145-.066.147-.064.146-.064.147-.062.148-.062.148-.061.149-.059.15-.059.151-.058.15-.057.152-.055.151-.055.153-.054.153-.053.154-.052.155-.051.154-.049.155-.049.156-.048.156-.047.158-.047.158-.045.158-.044.159-.043.159-.043.159-.041.16-.041.161-.039.162-.039.162-.038.163-.037.162-.036.164-.035.163-.034.165-.033.166-.032.165-.032.166-.03.167-.03.167-.029.168-.027.168-.028.169-.026.169-.025.17-.024.17-.024.171-.022.171-.022.172-.021.173-.02.173-.02.173-.018.174-.017.175-.017.174-.016.176-.015.176-.014.177-.014.177-.012.183-.012.351-.021.36-.017.361-.015.363-.011.365-.008.368-.005.367-.001h.182zm-.471 9.026l-.289.004-.285.006-.282.009-.278.011-.275.013-.276.016-.129.009-.134.009-.132.01-.132.011-.13.011-.13.012-.13.012-.128.013-.127.014-.127.014-.125.014-.124.015-.124.016-.124.016-.122.017-.121.018-.12.018-.119.018-.119.019-.118.02-.117.02-.116.021-.115.021-.114.021-.114.023-.112.022-.112.024-.111.023-.11.025-.11.024-.108.026-.107.025-.106.027-.106.026-.105.028-.105.027-.103.029-.103.028-.101.029-.101.03-.1.03-.099.031-.099.031-.098.031-.096.032-.096.033-.095.032-.095.034-.094.034-.093.034-.092.035-.091.035-.091.035-.089.036-.089.036-.089.037-.088.037-.087.038-.086.038-.085.039-.084.039-.084.039-.084.04-.082.04-.083.041-.08.041-.081.041-.079.042-.08.042-.078.043-.078.043-.078.044-.076.044-.076.044-.075.045-.074.045-.075.046-.073.046-.073.046-.072.047-.072.047-.07.048-.071.048-.07.049-.07.049-.069.05-.068.049-.067.051-.067.05-.067.052-.066.052-.066.052-.066.053-.064.052-.064.054-.064.054-.063.054-.063.056-.062.055-.062.056-.061.057-.061.056-.06.058-.061.058-.059.058-.06.06-.059.059-.058.06-.058.061-.057.061-.057.062-.057.062-.056.063-.057.064-.055.063-.055.065-.055.065-.054.066-.054.066-.054.067-.054.068-.052.068-.053.069-.052.069-.052.071-.052.07-.051.072-.051.072-.05.073-.05.073-.05.074-.049.075-.049.076-.049.076-.048.077-.048.078-.048.078-.047.079-.047.08-.047.08-.046.082-.046.082-.046.082-.045.084-.045.084-.044.085-.044.086-.044.087-.044.087-.042.088-.043.089-.042.089-.042.091-.042.091-.041.093-.041.093-.041.093-.04.094-.039.096-.04.096-.039.097-.038.098-.038.098-.038.1-.037.1-.037.101-.037.102-.036.103-.036.104-.035.104-.035.106-.035.106-.034.107-.034.108-.033.108-.033.11-.032.11-.032.112-.032.112-.031.113-.031.114-.03.114-.03.116-.029.116-.029.118-.029.118-.028.119-.028.12-.027.121-.025.116-.053.251-.051.25-.048.253-.046.256-.045.26-.042.263-.041.267-.038.27-.037.274-.034.277-.033.28-.031.284-.028.288-.027.291-.024.294-.022.298-.021.301-.018.304-.016.309-.014.311-.012.315-.009.318-.008.321-.005.325-.004.328-.001.333.002.314.005.313.008.311.011.31.014.309.018.306.02.306.023.303.026.303.029.301.049.448.055.445.061.442.066.439.073.435.078.433.055.286.057.286.059.283.062.283.064.281.066.28.069.278.07.277.073.276.074.275.076.273.078.272.081.271.081.269.084.268.085.267.087.265.089.264.09.263.092.261.093.261.095.259.096.257.097.257.099.255.1.254.101.252.102.252.104.249.104.249.105.248.107.246.107.245.108.243.219.484.222.478.224.473.221.458.238.207.207.169.208.163.212.157.215.152.218.146.221.141.225.136.229.132.233.126.237.122.242.118.246.113.252.109.256.105.262.1.267.096.272.092.279.088.284.084.29.08.296.075.194.047.21.048.206.044.209.043.212.04.215.039.217.037.22.036.223.033.225.031.229.03.231.028.234.026.237.024.239.022.243.021.245.018.248.017.251.015.254.013.256.012.259.009.262.008.264.006.267.005.27.002.273.001h.122l.123-.001.121-.002.121-.003.12-.003.12-.005.12-.004.119-.006.118-.006.118-.008.118-.007.117-.009.116-.009.116-.01.115-.011.115-.011.114-.012.114-.013.114-.013.113-.014.112-.015.112-.016.112-.016.11-.016.111-.018.11-.018.11-.019.109-.019.109-.02.108-.021.108-.021.108-.022.106-.023.107-.023.106-.024.106-.025.105-.025.105-.026.104-.026.104-.027.103-.028.104-.028.103-.029.102-.029.102-.031.102-.03.101-.031.1-.032.101-.033.099-.033.1-.033.099-.035.099-.034.099-.036.098-.036.097-.036.097-.037.098-.038.096-.039.096-.038.096-.04.096-.04.095-.04.095-.041.094-.042.094-.042.094-.043.093-.043.093-.044.093-.045.092-.045.092-.045.092-.046.091-.047.092-.047.09-.048.09-.048.09-.049.09-.05.09-.05.088-.05.089-.051.089-.051.088-.052.087-.053.088-.053.087-.054.087-.054.086-.054.086-.056.086-.055.086-.057.085-.056.085-.058.084-.058.085-.058.083-.058.078-.056.172-.124.166-.122.163-.125.163-.126.161-.128.16-.13.159-.132.158-.134.156-.136.155-.138.154-.14.152-.142.151-.143.15-.145.151-.149.063-.064.065-.066.063-.067.063-.066.062-.066.061-.067.061-.067.059-.067.059-.067.057-.067.058-.068.056-.068.056-.069.055-.068.055-.069.053-.069.053-.069.053-.07.051-.07.051-.071.051-.07.05-.071.049-.072.048-.072.048-.072.048-.073.047-.073.046-.074.046-.074.045-.074.045-.076.044-.076.044-.076.043-.076.043-.078.042-.078.042-.078.041-.079.041-.079.04-.081.04-.081.039-.082.039-.082.038-.083.038-.084.038-.084.037-.085.036-.086.036-.087.036-.087.036-.089.035-.089.034-.089.034-.091.033-.092.034-.092.032-.093.032-.094.032-.096.032-.095.03-.097.031-.098.03-.099.03-.099.029-.1.029-.102.028-.102.028-.103.027-.105.027-.105.027-.106.026-.107.026-.109.025-.109.024-.11.025-.111.024-.113.023-.113.023-.115.022-.115.022-.116.022-.118.021-.118.021-.12.02-.121.019-.116.039-.253.036-.251.034-.255.033-.26.03-.264.029-.269.027-.273.024-.277.023-.282.022-.287.019-.291.017-.296.016-.3.013-.304.012-.31.01-.313.008-.319.006-.323.005-.327.003-.332v-.675l-.003-.335-.005-.333-.006-.33-.008-.327-.01-.325-.012-.322-.014-.319-.015-.316-.018-.314-.019-.31-.022-.308-.023-.304-.026-.301-.027-.298-.029-.295-.032-.292-.033-.289-.036-.285-.037-.282-.039-.278-.042-.275-.043-.272-.046-.273-.023-.127-.024-.132-.024-.131-.025-.13-.026-.129-.026-.128-.026-.127-.027-.126-.027-.125-.028-.125-.029-.123-.029-.123-.029-.121-.03-.12-.03-.12-.031-.119-.031-.117-.032-.117-.033-.116-.032-.114-.033-.114-.034-.113-.034-.111-.035-.111-.035-.109-.035-.11-.036-.107-.037-.106-.037-.106-.037-.105-.038-.104-.038-.102-.039-.102-.039-.1-.039-.1-.04-.098-.04-.098-.041-.096-.041-.095-.042-.095-.042-.093-.042-.092-.043-.092-.043-.09-.044-.09-.044-.088-.044-.087-.045-.086-.045-.086-.046-.084-.045-.083-.047-.083-.046-.081-.047-.08-.048-.08-.047-.078-.048-.077-.049-.077-.049-.076-.049-.074-.05-.074-.05-.073-.05-.071-.051-.071-.051-.07-.051-.069-.052-.069-.052-.067-.053-.067-.053-.065-.053-.065-.054-.064-.054-.063-.054-.062-.056-.063-.055-.06-.056-.06-.056-.059-.057-.059-.057-.058-.149-.147-.149-.145-.152-.144-.152-.141-.154-.14-.155-.138-.156-.136-.158-.134-.159-.132-.16-.13-.161-.129-.163-.126-.163-.124-.166-.122-.171-.124-.078-.056-.085-.059-.084-.058-.084-.058-.085-.057-.085-.057-.086-.056-.086-.056-.086-.055-.086-.055-.087-.054-.087-.053-.088-.053-.087-.053-.088-.052-.089-.051-.089-.052-.089-.05-.089-.05-.09-.049-.09-.049-.09-.048-.09-.048-.091-.047-.092-.047-.092-.046-.092-.046-.092-.045-.092-.044-.094-.044-.093-.043-.094-.043-.094-.042-.094-.042-.095-.041-.095-.041-.096-.04-.096-.039-.096-.039-.097-.038-.096-.038-.098-.037-.098-.037-.097-.035-.099-.036-.099-.035-.099-.034-.099-.033-.101-.034-.1-.032-.1-.032-.102-.031-.101-.031-.102-.03-.102-.029-.103-.029-.103-.028-.104-.028-.104-.027-.104-.027-.105-.025-.105-.026-.106-.024-.106-.024-.107-.023-.106-.023-.108-.022-.108-.021-.108-.021-.108-.02-.11-.02-.11-.018-.11-.018-.11-.018-.111-.017-.112-.016-.112-.015-.112-.015-.113-.014-.114-.014-.114-.012-.114-.012-.115-.012-.115-.01-.116-.01-.117-.009-.116-.009-.118-.008-.118-.007-.118-.006-.119-.006-.119-.005-.12-.004-.121-.003-.121-.003-.121-.002-.122-.001h-.121l-.294.001zm69.222-114.696l-.228.29-.236.295-.243.3-.252.306-.259.311-.268.317-.276.323-.284.329-.291.335-.301.34-.308.347-.316.352-.324.359-.332.365-.341.37-.348.377-.356.382-.364.389-.372.394-.38.4-.388.406-.396.412-.403.418-.411.423-.418.43-.427.434-.433.441-.442.446-.448.452-.457.457-.463.463-.471.468-.478.473-.486.479-.492.484-.5.489-.507.494-.514.5-.52.504-.528.51-.534.514-.542.52-.548.524-.555.529-.561.534-.568.538-.574.543-.581.548-.588.552-.594.557-.6.561-.606.565-.612.57-.619.574-.625.578-.631.582-.636.587-.643.59-.649.594-.654.599-.66.602-.682.621-.558.496-.53.474-.525.469-.519.466-.514.463-.507.458-.501.454-.496.451-.49.447-.484.443-.477.439-.473.436-.466.432-.46.429-.454.425-.449.421-.442.418-.437.414-.43.41-.425.407-.419.404-.413.4-.406.397-.401.393-.395.39-.389.386-.383.383-.377.379-.371.376-.365.373-.359.37-.353.366-.347.363-.341.359-.334.357-.329.353-.323.349-.317.347-.31.343-.305.34-.298.337-.293.333-.286.33-.28.327-.274.324-.268.32-.262.318-.256.314-.252.314-.12.151-.122.154-.119.152-.118.152-.117.151-.115.15-.113.149-.112.149-.11.148-.109.146-.107.147-.106.145-.104.144-.103.144-.101.142-.1.143-.098.141-.097.14-.095.14-.094.138-.092.138-.09.137-.089.136-.088.135-.086.135-.085.133-.083.133-.081.132-.08.131-.078.129-.074.124-.073.124-.072.125-.071.127-.071.127-.07.128-.07.129-.069.131-.068.131-.068.132-.067.134-.066.134-.066.136-.065.136-.065.138-.064.139-.063.14-.063.14-.062.142-.062.144-.061.144-.06.145-.06.147-.059.147-.059.149-.058.149-.057.151-.057.152-.056.153-.055.155-.055.155-.055.157-.053.157-.053.159-.053.16-.052.161-.051.162-.051.164-.05.164-.049.166-.049.166-.048.168-.048.169-.047.17-.046.172-.046.172-.045.174-.045.175-.044.176-.043.177-.043.178-.042.179-.041.181-.041.182-.041.182-.039.184-.039.185-.039.187-.038.187-.037.189-.037.189-.036.191-.035.192-.035.193-.035.194-.033.195-.033.197-.033.198-.032.199-.031.2-.031.2-.03.203-.029.203-.029.205-.029.205-.027.207-.028.208-.026.209-.026.21-.026.211-.024.212-.024.21-.048.434-.044.435-.042.439-.04.444-.038.448-.036.453-.033.456-.031.462-.029.466-.027.47-.025.474-.023.479-.02.483-.019.488-.016.491-.015.497-.012.5-.011.505-.008.509-.007.513-.004.518-.003.522-.001.53v9.665h-29.653v-14.829l.001-.342.001-.343.003-.342.003-.34.004-.339.006-.338.006-.337.007-.335.009-.334.009-.333.01-.331.011-.33.012-.329.013-.327.014-.327.015-.324.015-.324.017-.323.018-.321.018-.32.02-.319.02-.317.021-.317.022-.315.023-.314.024-.313.025-.312.026-.31.027-.309.027-.308.029-.307.029-.306.03-.305.031-.303.032-.303.033-.301.033-.3.035-.299.035-.298.036-.297.037-.296.038-.294.039-.294.04-.292.04-.292.041-.29.042-.289.043-.289.044-.287.045-.286.045-.285.046-.284.047-.283.048-.282.048-.281.05-.28.05-.279.051-.279.051-.277.053-.276.053-.275.054-.274.055-.273.056-.272.056-.272.057-.27.058-.269.058-.269.06-.267.06-.267.061-.266.061-.264.062-.264.063-.263.064-.262.064-.261.066-.261.065-.259.067-.258.067-.258.068-.257.069-.256.069-.255.07-.254.071-.254.071-.252.072-.252.072-.251.074-.25.074-.25.074-.248.076-.248.075-.247.077-.246.077-.246.078-.244.078-.244.079-.243.08-.242.08-.242.081-.241.082-.243.164-.475.167-.475.169-.472.171-.47.174-.466.176-.464.178-.462.18-.459.182-.456.184-.453.186-.452.188-.449.19-.446.102-.235.103-.235.104-.234.106-.235.107-.234.109-.234.111-.233.111-.234.114-.234.114-.233.116-.233.118-.233.119-.232.121-.233.122-.232.123-.233.125-.232.126-.232.128-.232.129-.231.131-.232.132-.231.133-.232.135-.231.136-.231.138-.231.139-.231.14-.231.142-.231.144-.23.144-.231.146-.23.148-.231.149-.23.15-.23.152-.23.153-.231.154-.229.156-.23.157-.23.159-.23.16-.23.162-.23.162-.23.164-.23.166-.23.167-.23.168-.23.17-.229.171-.23.172-.23.174-.23.175-.23.177-.23.178-.23.179-.23.181-.23.182-.23.183-.23.185-.23.186-.231.187-.23.189-.23.19-.231.191-.231.193-.23.195-.231.195-.231.197-.231.198-.231.2-.231.201-.232.202-.231.204-.232.205-.232.206-.232.208-.232.209-.232.211-.232.211-.233.214-.233.214-.233.216-.233.217-.233.219-.233.22-.234.221-.234.223-.234.224-.234.225-.235.227-.235.228-.235.229-.235.231-.235.232-.236.233-.236.235-.236.238-.238.474-.472.482-.475.487-.476.493-.477.497-.478.504-.479.509-.481.514-.482.519-.484.525-.484.531-.487.535-.487.542-.49.546-.49.602-.537.774-.646.706-.593.699-.588.691-.585.684-.581.675-.576.668-.573.66-.568.652-.564.643-.56.636-.556.628-.551.62-.548.612-.542.604-.539.595-.534.587-.53.579-.525.571-.52.563-.517.554-.511.546-.507.537-.502.529-.497.52-.493.512-.488.503-.483.495-.478.486-.473.478-.468.468-.464.46-.458.451-.453.442-.447.434-.443.424-.437.416-.432.406-.426.397-.421.39-.418.189-.203.188-.204.187-.203.183-.201.182-.2.179-.199.177-.197.174-.195.172-.195.17-.192.167-.191.165-.19.163-.188.16-.186.158-.185.156-.184.153-.182.15-.18.149-.179.145-.177.144-.175.141-.174.138-.172.136-.171.134-.169.131-.167.129-.166.126-.163.124-.162.121-.16.119-.159.116-.156.114-.155.111-.153.108-.151.107-.149.103-.147.101-.145.098-.144.096-.141.093-.139.091-.137.088-.135.085-.132.083-.131.08-.129.078-.126.075-.124.073-.123.073-.124.072-.125.071-.127.071-.127.071-.129.069-.129.07-.131.068-.132.068-.132.068-.134.066-.135.067-.135.065-.137.065-.138.065-.139.063-.14.064-.141.062-.142.062-.142.062-.144.06-.145.06-.145.06-.147.059-.148.058-.148.058-.15.057-.151.056-.151.056-.152.055-.153.055-.154.054-.155.053-.157.053-.156.052-.158.052-.159.05-.159.05-.16.05-.161.049-.162.048-.163.048-.163.047-.165.047-.165.046-.166.045-.166.044-.168.044-.168.044-.169.042-.17.043-.17.041-.172.041-.172.04-.172.04-.174.039-.174.038-.174.038-.176.037-.176.037-.177.036-.177.035-.178.035-.179.034-.179.033-.18.033-.181.033-.181.031-.182.031-.178.061-.371.058-.368.056-.371.053-.373.051-.375.049-.377.046-.378.044-.381.042-.382.039-.384.038-.386.035-.387.033-.388.031-.39.028-.392.027-.392.024-.394.022-.395.021-.396.018-.397.016-.397.014-.399.012-.399.011-.4.008-.401.006-.402.005-.402.003-.402.001-.402-.001-.249-.002-.246-.003-.246-.005-.245-.005-.243-.008-.242-.008-.242-.01-.24-.01-.239-.013-.238-.013-.237-.015-.235-.016-.235-.017-.234-.018-.232-.02-.231-.021-.231-.022-.229-.024-.228-.025-.227-.026-.226-.027-.225-.028-.223-.03-.223-.031-.221-.032-.221-.033-.219-.035-.219-.036-.217-.037-.216-.038-.215-.039-.214-.041-.213-.042-.212-.043-.211-.044-.21-.045-.208-.047-.208-.048-.207-.049-.205-.05-.205-.052-.203-.052-.203-.054-.201-.055-.201-.056-.199-.057-.199-.059-.197-.059-.196-.061-.196-.062-.194-.063-.193-.065-.193-.065-.191-.067-.19-.068-.19-.069-.189-.07-.187-.071-.187-.073-.185-.073-.185-.075-.183-.076-.183-.077-.182-.079-.181-.079-.18-.081-.179-.082-.178-.082-.177-.085-.177-.085-.175-.086-.175-.088-.173-.089-.173-.09-.172-.091-.171-.092-.17-.094-.169-.094-.169-.096-.167-.097-.167-.098-.166-.099-.165-.101-.164-.102-.163-.103-.163-.104-.162-.105-.161-.107-.16-.108-.159-.109-.158-.11-.158-.111-.157-.113-.156-.114-.156-.115-.154-.116-.154-.117-.153-.119-.153-.12-.151-.121-.151-.123-.15-.124-.149-.125-.149-.126-.148-.128-.147-.128-.146-.13-.146-.132-.145-.133-.144-.133-.143-.136-.143-.136-.142-.138-.141-.139-.141-.141-.14-.142-.139-.143-.138-.144-.138-.146-.137-.147-.137-.149-.135-.149-.135-.152-.134-.152-.134-.154-.133-.155-.132-.158-.132-.161-.134-.163-.133-.164-.133-.164-.131-.165-.131-.167-.13-.166-.129-.168-.128-.169-.127-.169-.126-.171-.125-.171-.125-.172-.123-.173-.123-.173-.121-.175-.121-.176-.12-.176-.119-.178-.118-.178-.117-.179-.116-.181-.115-.181-.115-.182-.113-.184-.112-.184-.112-.186-.111-.186-.11-.187-.108-.189-.108-.189-.107-.191-.107-.192-.105-.193-.104-.194-.103-.195-.103-.196-.101-.197-.101-.199-.1-.2-.098-.201-.098-.202-.097-.203-.096-.205-.095-.205-.094-.207-.093-.209-.092-.209-.091-.211-.091-.212-.089-.213-.088-.215-.088-.216-.086-.217-.085-.219-.085-.22-.083-.221-.083-.223-.082-.224-.08-.226-.08-.227-.078-.228-.078-.23-.076-.232-.076-.232-.075-.235-.073-.235-.073-.238-.071-.238-.071-.24-.069-.242-.069-.244-.067-.244-.066-.247-.066-.248-.064-.249-.063-.251-.062-.253-.061-.255-.06-.255-.059-.258-.058-.259-.057-.261-.055-.263-.055-.264-.053-.266-.052-.267-.052-.269-.05-.271-.049-.273-.047-.274-.047-.276-.046-.278-.044-.28-.043-.281-.042-.283-.041-.285-.04-.287-.039-.288-.037-.291-.036-.292-.035-.294-.034-.295-.033-.298-.031-.299-.03-.302-.029-.303-.028-.305-.026-.307-.025-.308-.024-.311-.023-.312-.022-.315-.02-.316-.019-.319-.018-.32-.016-.322-.015-.324-.014-.326-.013-.328-.011-.33-.01-.332-.008-.334-.008-.336-.006-.338-.004-.34-.004-.342-.002-.343-.001-.404.001-.402.003-.403.005-.403.006-.403.008-.403.01-.403.012-.403.013-.403.015-.403.017-.403.019-.403.021-.403.022-.403.025-.403.026-.403.028-.403.029-.403.032-.403.033-.403.035-.403.037-.403.039-.404.04-.403.043-.403.044-.403.046-.404.047-.403.05-.403.051-.404.053-.403.055-.404.057-.403.059-.404.06-.403.062-.404.064-.404.066-.403.067-.404.07-.404.071-.404.073-.404.075-.403.077-.404.078-.404.08-.405.082-.404.084-.404.086-.404.087-.404.09-.405.091-.404.093-.405.095-.404.096-.405.099-.404.1-.405.102-.405.104-.404.106-.405.107-.405.11-.405.111-.405.113-.407.115-.409.118-.414.12-.415.122-.417.123-.418.126-.421.127-.422.13-.424.131-.426.133-.427.135-.429.137-.431.138-.432.141-.433.142-.436.145-.436.146-.438.148-.44.149-.441.152-.442.154-.444.155-.445.157-.446.159-.447.161-.449.163-.449.165-.451.166-.452.169-.453.17-.454.172-.455.174-.456.176-.457.177-.458.18-.458.181-.46.183-.46.185-.461.187-.462.189-.463.19-.463.193-.464.194-.465.196-.465.198-.466.2-.466.201-.467.204-.468.205-.468.207-.468.209-.468.211-.469.212-.47.215-.469.216-.47.218-.47.22-.47.222-.471.223-.47.226-.471.227-.471.229-.471.231-.471.233-4.697 2.339-13.943-31.372 4.256-2.243.53-.276.531-.275.531-.271.532-.27.533-.267.532-.265.534-.262.534-.26.534-.257.535-.256.536-.252.536-.251.536-.248.537-.245.537-.244.538-.241.539-.238.539-.236.539-.234.54-.232.541-.229.541-.226.542-.225.542-.222.542-.22.543-.217.544-.215.544-.213.544-.21.545-.209.546-.205.546-.204.546-.201.547-.199.548-.197.548-.194.548-.192.549-.189.549-.188.55-.185.551-.183.55-.18.552-.179.552-.176.552-.173.553-.172.553-.169.554-.167.554-.165.555-.162.555-.161.555-.158.556-.155.557-.154.557-.151.558-.149.558-.147.558-.145.559-.142.559-.14.56-.138.56-.136.561-.133.562-.132.561-.129.562-.127.563-.125.563-.122.564-.121.564-.118.564-.116.565-.114.565-.112.566-.109.566-.108.567-.105.567-.103.568-.101.568-.099.568-.097.569-.094.57-.093.569-.09.571-.088.57-.087.572-.084.571-.081.572-.08.573-.078.573-.075.573-.074.574-.071.574-.07.575-.067.575-.065.575-.063.576-.061.577-.059.577-.057.577-.055.578-.053.578-.051.578-.048.579-.047.58-.045.58-.042.58-.041.581-.039.581-.036.581-.035.582-.032.583-.031.583-.028.583-.027.584-.024.584-.023.584-.02.585-.019.586-.017.585-.014.587-.013.586-.011.587-.008.588-.007.588-.005.588-.003.589-.001.53.001.528.003.527.005.526.007.524.008.523.011.522.013.52.015.519.017.518.018.516.021.515.023.514.025.512.026.511.029.509.031.509.033.506.035.506.037.503.039.503.041.501.043.5.045.498.048.496.049.496.051.493.054.493.055.491.058.489.06.488.062.486.064.485.066.484.069.481.07.481.073.479.075.477.077.476.079.474.081.473.083.471.086.469.088.468.09.467.092.464.095.464.096.461.099.46.101.459.104.456.105.455.108.454.11.452.113.45.115.448.116.447.12.445.121.444.124.442.126.44.129.438.131.437.133.435.135.433.138.431.14.43.143.428.145.426.147.424.149.423.153.42.154.419.157.417.159.416.162.413.164.412.166.409.169.408.172.406.174.404.176.403.179.4.181.398.184.397.186.394.189.393.191.39.194.389.196.386.199.385.201.382.204.381.207.378.208.377.212.37.212.376.219.37.219.368.222.366.224.364.227.362.23.359.232.358.235.355.237.353.24.351.243.348.245.346.248.344.25.342.254.34.255.337.259.335.261.332.264.331.266.327.269.326.272.323.274.321.277.318.28.315.282.314.285.311.288.308.29.306.293.304.296.125.123.298.243.326.269.323.272.32.275.317.276.314.279.311.281.309.283.305.285.302.287.3.29.297.292.294.294.29.296.288.299.285.3.282.303.279.305.276.307.273.309.27.311.267.313.265.316.261.317.259.32.255.322.253.323.249.326.247.328.244.33.241.332.238.334.235.336.232.338.229.34.226.342.224.344.22.346.218.347.215.35.211.352.209.354.207.356.203.357.2.359.198.362.194.363.192.365.189.367.187.369.183.37.181.373.178.374.089.192.172.373.171.379.168.38.165.383.163.384.16.386.157.388.155.39.151.391.149.393.147.395.143.396.141.399.139.4.136.401.133.404.13.405.128.407.126.408.123.411.12.412.118.414.115.415.112.417.11.419.108.42.105.423.103.423.1.426.097.427.096.429.092.43.091.432.088.434.085.436.084.437.08.439.079.44.076.442.074.444.071.445.069.447.067.449.065.45.062.452.06.454.058.455.055.457.053.459.052.46.048.462.047.464.044.465.043.467.04.469.038.47.036.472.033.473.032.475.029.477.028.479.025.48.023.482.021.483.019.486.017.487.015.488.013.49.011.492.009.494.007.495.005.497.003.498.001.501-.001.441-.003.438-.005.435-.007.432-.009.428-.011.425-.013.422-.015.42-.017.416-.019.413-.021.411-.023.407-.025.405-.028.403-.029.399-.031.397-.033.395-.036.392-.037.389-.04.387-.041.385-.044.383-.046.38-.048.378-.05.376-.052.374-.054.372-.056.37-.058.367-.061.366-.062.364-.065.362-.067.361-.069.358-.071.357-.073.355-.075.354-.077.352-.079.35-.081.349-.084.348-.085.345-.088.345-.09.343-.091.342-.094.341-.096.339-.098.338-.099.337-.102.336-.104.335-.106.334-.108.333-.11.332-.111.331-.114.33-.116.329-.117.329-.12.327-.121.328-.124.326-.125.326-.127.326-.127.32-.489 1.219-.246.613-.25.615-.253.617-.255.617-.131.313-.131.31-.132.312-.134.311-.135.312-.136.313-.138.312-.139.313-.141.313-.143.314-.144.313-.147.314-.148.313-.15.314-.152.314-.155.313-.156.314-.159.313-.161.314-.163.313-.166.313-.169.312-.171.313-.174.312-.177.311-.179.311-.183.311-.185.31-.189.31-.191.309-.195.308-.198.307-.202.307-.201.301-.107.157-.105.152-.105.152-.107.152-.107.152-.108.151-.109.151-.11.151-.111.15-.112.151-.113.15-.114.149-.115.149-.115.149-.117.149-.118.148-.119.148-.119.148-.121.147-.122.146-.123.147-.124.146-.125.146-.125.145-.127.145-.128.144-.13.144-.13.144-.131.143-.132.143-.134.142-.134.142-.136.141-.137.141-.138.14.084-.084-.015.021-.22.284zm-59.175-101.898l-.559.002-.558.005-.557.006-.557.009-.556.01-.556.012-.556.014-.554.016-.555.017-.553.02-.554.021-.552.023-.553.025-.551.027-.552.029-.55.031-.55.033-.55.034-.549.037-.549.038-.548.041-.547.042-.547.044-.547.046-.546.048-.545.05-.545.052-.545.053-.544.056-.543.058-.543.059-.543.062-.542.063-.541.065-.541.068-.54.069-.54.071-.54.073-.539.075-.538.078-.538.079-.537.081-.537.083-.537.085-.535.087-.536.089-.535.091-.534.093-.534.095-.533.097-.533.099-.533.101-.532.103-.531.105-.531.107-.53.109-.53.111-.53.114-.529.115-.528.117-.528.119-.528.122-.527.123-.526.125-.527.128-.525.129-.525.132-.525.134-.524.135-.524.138-.523.14-.523.142-.522.144-.522.146-.521.148-.521.151-.52.152-.52.154-.52.157-.519.159-.518.161-.518.163-.518.165-.517.167-.516.169-.517.172-.515.173-.515.176-.515.178-.515.18-.514.182-.513.185-.513.186-.512.189-.513.191-.511.193-.511.195-.511.197-.51.2-.51.202-.51.204-.508.206-.509.208-.508.211-.508.212-.507.215-.506.218-.507.219-.506.222-.505.224-.505.226-.504.228-.504.231-.504.232-.503.236-.503.237-.502.239-.502.242-.502.244-.248.122 6.685 15.041.211-.098.494-.23.495-.227.493-.226.494-.223.493-.222.492-.22.492-.218.492-.216.491-.214.49-.212.49-.21.489-.208.489-.206.488-.204.487-.203.487-.2.486-.198.485-.197.484-.194.483-.193.483-.191.482-.189.48-.187.48-.185.479-.183.478-.181.476-.179.476-.177.475-.175.473-.174.473-.171.471-.17.47-.167.469-.166.467-.164.466-.162.465-.16.464-.158.462-.156.461-.154.46-.152.458-.151.456-.148.455-.147.454-.144.451-.143.451-.141.449-.138.447-.137.445-.135.444-.134.442-.131.44-.129.439-.127.438-.126.439-.125.441-.123.442-.121.441-.119.441-.117.441-.116.442-.113.441-.111.441-.11.442-.107.442-.106.441-.103.442-.102.442-.099.441-.098.442-.096.442-.093.442-.092.442-.09.442-.088.442-.085.442-.084.442-.082.443-.08.442-.078.442-.076.443-.074.442-.072.442-.07.443-.069.443-.066.442-.064.443-.062.442-.061.443-.058.443-.056.442-.054.443-.053.443-.05.443-.049.443-.046.443-.045.442-.042.443-.041.443-.038.443-.037.443-.034.443-.033.443-.031.443-.028.443-.027.444-.025.443-.023.443-.02.443-.019.443-.017.443-.015.443-.013.443-.011.444-.008.443-.007.443-.005.443-.003.443-.001h.38l.377.003.376.003.374.006.373.006.37.008.369.01.368.011.365.013.364.014.363.015.36.017.359.018.357.02.356.022.354.022.352.025.351.025.349.028.348.028.346.03.344.032.343.033.341.034.339.036.338.037.337.039.334.04.334.041.331.043.331.045.328.046.327.047.326.049.324.05.323.051.321.053.319.054.318.056.317.057.315.059.314.06.312.062.31.062.31.065.307.065.307.067.305.069.303.069.302.072.301.072.299.074.297.076.297.076.295.079.293.079.292.081.291.082.289.084.288.085.286.086.285.088.284.089.282.09.281.092.28.093.278.095.277.096.275.097.275.098.272.1.272.101.27.103.269.104.267.105.266.106.265.108.263.109.262.11.261.112.26.113.258.114.257.116.255.117.254.118.253.119.252.12.25.122.249.123.248.125.246.125.245.127.244.128.243.129.241.131.24.132.239.132.237.135.237.135.234.136.234.138.233.139.231.14.23.141.229.142.227.144.226.144.225.146.224.147.223.148.221.149.22.15.219.151.218.153.216.153.216.155.214.156.213.156.212.158.21.159.21.159.208.161.207.162.206.163.205.164.204.165.202.166.203.167.203.171.203.173.202.174.2.175.199.177.197.177.196.179.194.18.193.181.191.183.19.183.188.185.186.186.186.187.183.188.182.19.181.19.179.192.178.193.176.194.174.195.173.197.171.197.17.199.168.2.167.201.165.202.163.203.162.205.16.205.159.207.157.208.156.209.153.21.153.211.151.212.148.214.148.214.146.216.144.216.142.218.141.219.14.22.137.221.136.221.134.224.133.224.131.225.129.226.128.228.126.228.125.229.123.23.121.232.119.232.118.233.116.235.114.235.113.236.111.238.11.238.107.239.106.241.105.241.103.242.101.243.099.244.098.245.096.246.094.247.093.248.091.248.089.25.088.251.086.251.084.252.083.254.081.254.08.255.077.256.077.257.074.257.073.259.071.259.069.261.068.261.066.262.065.263.063.263.061.265.059.265.059.267.056.267.054.267.054.269.051.27.05.27.048.271.047.273.044.272.044.274.042.274.04.276.038.276.037.277.035.278.034.278.032.279.031.28.029.281.027.282.026.282.024.284.022.284.021.284.02.286.018.287.016.287.015.288.013.289.012.289.01.29.008.292.007.292.006.292.003.294.003.294v.295l-.001.444-.003.443-.005.444-.007.444-.009.444-.011.444-.014.444-.016.444-.018.445-.02.443-.023.444-.025.443-.027.444-.03.442-.033.443-.034.441-.038.442-.04.441-.043.44-.045.44-.048.439-.051.438-.053.438-.057.436-.059.436-.062.435-.065.434-.068.432-.071.428-.037.219-.038.216-.038.215-.039.214-.04.214-.041.214-.041.214-.043.213-.043.213-.044.213-.045.212-.045.212-.047.212-.047.211-.048.211-.049.211-.05.21-.051.209-.052.21-.053.209-.053.208-.054.208-.056.208-.056.207-.057.207-.058.207-.059.206-.06.205-.061.205-.062.205-.063.204-.064.204-.065.203-.065.203-.067.202-.068.202-.069.201-.07.201-.071.2-.072.2-.073.199-.074.199-.075.198-.076.197-.077.197-.079.196-.079.196-.081.196-.081.194-.083.194-.084.194-.085.192-.086.192-.087.192-.089.19-.09.191-.09.189-.093.189-.093.188-.094.188-.096.186-.097.186-.098.186-.099.184-.101.184-.102.183-.103.183-.105.181-.105.181-.108.18-.108.179-.111.181-.113.18-.115.182-.117.182-.119.183-.121.183-.124.184-.125.185-.128.186-.129.186-.132.187-.134.188-.135.188-.138.19-.14.191-.142.191-.144.192-.146.193-.149.194-.15.195-.152.196-.155.197-.156.198-.159.199-.161.2-.162.2-.165.202-.168.203-.169.204-.171.205-.173.206-.175.206-.178.208-.179.209-.182.21-.184.211-.185.213-.188.213-.19.214-.192.215-.195.217-.196.217-.198.218-.2.22-.203.221-.204.221-.209.225-.417.447-.428.453-.436.458-.444.461-.453.466-.46.471-.469.475-.477.479-.486.483-.493.488-.502.492-.51.496-.517.501-.526.504-.534.509-.543.514-.55.517-.558.522-.566.525-.574.53-.582.534-.59.538-.598.543-.606.546-.614.55-.621.555-.629.558-.638.563-.644.566-.653.57-.66.575-.668.578-.676.582-.683.586-.691.589-.699.594-.706.597-.713.601-.721.605-.669.558-.481.429-.524.471-.518.468-.513.466-.506.465-.5.462-.495.46-.489.458-.482.457-.477.454-.471.452-.465.45-.459.449-.453.446-.449.447-.22.22-.22.221-.218.221-.217.22-.216.22-.214.219-.212.219-.211.219-.21.218-.208.218-.206.217-.205.217-.204.216-.202.216-.201.215-.199.215-.198.215-.196.214-.194.214-.194.213-.191.213-.191.213-.188.212-.188.212-.186.211-.184.211-.183.21-.181.211-.18.209-.178.21-.177.208-.176.209-.174.208-.172.208-.171.207-.17.207-.168.207-.167.206-.165.206-.164.206-.162.205-.161.204-.159.205-.158.204-.156.203-.155.204-.153.203-.152.202-.151.203-.149.201-.147.202-.146.201-.145.201-.143.2-.142.201-.14.199-.139.2-.137.199-.136.199-.135.198-.133.199-.132.197-.13.198-.128.197-.128.197-.126.196-.124.196-.123.197-.122.195-.12.195-.118.196-.118.194-.116.195-.114.194-.113.194-.112.193-.11.193-.109.193-.107.193-.106.193-.105.192-.103.192-.102.191-.1.192-.099.191-.098.191-.096.19-.095.191-.093.19-.093.19-.09.189-.09.19-.088.189-.086.189-.086.189-.084.188-.082.189-.082.188-.17.401-.169.403-.167.405-.165.406-.163.408-.161.41-.158.412-.157.413-.155.416-.153.418-.15.42-.148.422-.148.428-.071.21-.072.214-.071.214-.07.215-.07.215-.07.217-.069.217-.068.217-.068.219-.067.218-.067.22-.066.22-.066.221-.065.222-.064.222-.064.224-.063.223-.063.225-.062.226-.061.226-.061.227-.06.227-.06.229-.059.229-.058.23-.058.231-.057.232-.057.232-.055.234-.056.234-.054.235-.054.236-.054.237-.053.238-.052.239-.051.24-.051.24-.05.242-.049.242-.049.243-.048.245-.048.245-.047.246-.046.247-.045.249-.045.249-.044.25-.044.251-.042.253-.042.253-.042.254-.04.256-.04.256-.039.258-.039.258-.038.26-.037.261-.036.262-.036.263-.035.264-.034.265-.033.266-.033.268-.032.269-.031.27-.03.271-.03.272-.029.273-.028.275-.027.276-.026.277-.026.278-.025.28-.024.28-.024.282-.022.284-.022.284-.021.286-.02.287-.02.288-.018.29-.018.291-.017.292-.016.294-.015.295-.015.296-.013.298-.013.299-.012.3-.011.302-.01.303-.009.305-.009.306-.007.307-.007.308-.006.311-.005.311-.004.313-.003.315-.002.316-.002.317v6.12h11.603v-.648l.001-.554.003-.555.005-.551.007-.548.009-.545.011-.541.014-.539.015-.535.018-.531.02-.529.023-.525.024-.522.027-.519.03-.516.032-.512.034-.51.037-.506.04-.503.042-.5.045-.497.047-.494.051-.49.052-.484.028-.246.029-.242.029-.241.029-.241.031-.239.031-.239.032-.238.033-.237.033-.237.035-.236.035-.234.035-.235.037-.233.037-.233.038-.232.039-.231.04-.231.041-.23.041-.228.042-.229.043-.227.044-.227.045-.226.045-.225.047-.225.047-.223.048-.223.049-.223.05-.221.051-.221.051-.22.053-.22.054-.218.054-.218.055-.217.057-.216.057-.216.058-.215.059-.214.06-.213.061-.213.062-.212.063-.211.064-.211.065-.209.066-.209.068-.208.068-.208.069-.206.07-.206.071-.205.072-.205.073-.203.075-.203.075-.202.077-.202.077-.2.079-.2.08-.199.081-.198.082-.198.083-.196.084-.196.086-.195.086-.195.088-.193.089-.193.09-.192.091-.191.093-.19.093-.189.095-.189.096-.188.097-.187.099-.186.099-.185.101-.185.102-.183.104-.182.104-.182.106-.181.106-.178.105-.174.106-.173.107-.173.108-.173.109-.172.111-.173.112-.174.114-.173.114-.173.117-.174.117-.174.119-.174.12-.174.121-.175.123-.174.124-.175.125-.176.127-.175.128-.176.129-.175.13-.177.132-.176.133-.177.135-.177.136-.177.137-.178.138-.178.14-.178.14-.179.145-.182.286-.356.294-.361.299-.362.304-.364.31-.365.314-.367.32-.369.325-.371.331-.373.335-.374.341-.377.347-.379.351-.38.357-.383.362-.386.367-.387.373-.39.378-.392.383-.394.389-.397.393-.4.4-.402.404-.404.41-.408.415-.409.421-.413.426-.415.432-.418.436-.421.443-.424.447-.427.453-.429.458-.433.464-.436.469-.439.475-.441.48-.445.485-.449.491-.451.497-.455.501-.458.508-.461.512-.464.518-.468.524-.472.529-.475.535-.478.54-.482.524-.467.642-.584.652-.595.647-.591.64-.588.635-.583.629-.579.622-.574.617-.571.61-.566.604-.562.598-.557.591-.553.585-.549.579-.543.572-.539.565-.535.558-.529.552-.525.545-.52.538-.514.531-.51.524-.504.517-.5.51-.494.503-.488.495-.484.489-.477.48-.473.474-.467.465-.461.458-.455.451-.449.443-.444.434-.438.428-.432.419-.425.411-.42.403-.413.395-.407.386-.4.378-.394.37-.387.362-.381.353-.374.344-.367.335-.361.327-.353.318-.346.309-.339.3-.332.29-.324.282-.316.272-.309.262-.301.253-.293.243-.284.233-.277.224-.268.213-.259.203-.25.192-.241.182-.231.171-.221.356-.47.325-.327.101-.103.1-.103.1-.104.098-.104.098-.104.098-.105.097-.106.096-.106.095-.106.095-.107.094-.107.093-.108.093-.108.092-.108.091-.109.091-.11.09-.11.09-.11.089-.111.088-.111.088-.112.087-.112.087-.113.086-.113.085-.114.085-.114.085-.114.083-.115.084-.115.082-.116.083-.116.082-.117.081-.117.081-.118.077-.113.162-.242.157-.24.155-.241.154-.243.152-.244.15-.247.148-.248.147-.25.145-.252.144-.253.142-.255.141-.257.139-.258.138-.261.137-.262.136-.263.134-.265.133-.267.132-.268.131-.27.13-.272.129-.273.128-.274.127-.276.127-.278.125-.279.125-.28.124-.281.124-.283.123-.285.122-.285.122-.287.121-.288.12-.287.243-.585.24-.587.24-.591.239-.594.48-1.197.113-.284.109-.279.107-.279.105-.279.103-.278.102-.278.099-.279.098-.278.096-.278.094-.279.092-.279.091-.279.089-.28.086-.28.086-.281.083-.282.082-.282.079-.283.079-.284.076-.285.075-.286.073-.287.071-.288.069-.29.068-.29.066-.293.065-.293.063-.296.061-.297.059-.299.058-.301.056-.302.054-.305.053-.306.051-.309.049-.311.048-.313.046-.316.044-.318.042-.32.041-.323.04-.326.037-.328.036-.331.034-.334.032-.337.031-.34.029-.343.027-.346.026-.35.024-.352.022-.356.02-.36.019-.362.017-.367.015-.37.013-.373.012-.377.01-.382.008-.384.006-.389.004-.393.003-.397.001-.401-.001-.464-.003-.463-.004-.46-.007-.459-.008-.456-.01-.455-.012-.452-.014-.45-.015-.448-.018-.446-.019-.444-.021-.441-.024-.44-.025-.437-.026-.435-.029-.434-.031-.431-.032-.429-.035-.427-.036-.424-.039-.423-.04-.42-.042-.419-.044-.416-.046-.414-.048-.412-.049-.41-.052-.408-.054-.405-.055-.404-.058-.401-.059-.399-.062-.397-.063-.395-.065-.393-.068-.391-.069-.389-.071-.386-.073-.385-.075-.382-.077-.38-.079-.378-.081-.376-.084-.374-.085-.371-.087-.37-.089-.368-.09-.365-.093-.363-.095-.361-.097-.36-.099-.357-.101-.355-.103-.352-.105-.351-.107-.349-.109-.346-.111-.345-.113-.342-.115-.341-.117-.338-.12-.337-.121-.334-.123-.332-.125-.33-.127-.329-.13-.326-.131-.324-.134-.322-.135-.32-.138-.319-.139-.316-.142-.314-.146-.317-.071-.151-.073-.154-.073-.155-.075-.154-.075-.153-.075-.154-.076-.152-.076-.152-.077-.152-.077-.151-.078-.15-.079-.15-.079-.15-.079-.149-.081-.149-.08-.148-.081-.147-.082-.148-.082-.147-.083-.146-.083-.146-.084-.145-.085-.145-.085-.145-.085-.143-.086-.144-.087-.143-.087-.143-.087-.142-.089-.141-.088-.142-.09-.14-.09-.141-.09-.14-.091-.139-.091-.139-.092-.138-.093-.138-.093-.138-.094-.137-.095-.137-.094-.136-.096-.136-.096-.136-.097-.135-.097-.134-.097-.134-.099-.134-.099-.133-.099-.133-.1-.132-.101-.132-.101-.132-.102-.131-.102-.13-.103-.131-.104-.129-.104-.129-.104-.129-.106-.129-.106-.128-.106-.128-.107-.127-.108-.127-.108-.126-.109-.126-.11-.126-.11-.125-.111-.125-.111-.124-.112-.124-.113-.124-.113-.123-.113-.122-.115-.123-.115-.122-.116-.121-.116-.121-.117-.121-.117-.12-.119-.12-.118-.12-.12-.119-.12-.118-.121-.118-.121-.118-.122-.118-.123-.117-.123-.117-.124-.116-.124-.116-.126-.115-.126-.115-.126-.115-.127-.114-.128-.114-.129-.114-.129-.113-.13-.113-.13-.112-.132-.112-.132-.112-.132-.111-.133-.111-.134-.11-.135-.11-.135-.11-.331-.265-.299-.299-.123-.121-.124-.121-.124-.12-.124-.12-.125-.119-.126-.119-.126-.118-.127-.118-.128-.117-.127-.117-.129-.116-.129-.116-.129-.115-.13-.115-.131-.115-.131-.113-.132-.114-.132-.112-.133-.113-.133-.112-.134-.111-.134-.111-.135-.11-.136-.109-.136-.11-.137-.109-.137-.108-.137-.108-.139-.107-.138-.107-.14-.106-.14-.106-.14-.106-.141-.104-.142-.105-.142-.104-.142-.103-.143-.103-.144-.102-.145-.102-.144-.102-.146-.101-.146-.1-.146-.1-.147-.1-.147-.099-.149-.099-.148-.097-.149-.098-.15-.097-.15-.097-.151-.096-.152-.096-.151-.095-.153-.095-.153-.094-.153-.093-.154-.094-.155-.092-.155-.093-.156-.092-.156-.091-.153-.089-.319-.182-.317-.178-.32-.177-.322-.174-.324-.173-.326-.171-.328-.168-.33-.167-.333-.165-.334-.163-.337-.161-.339-.16-.341-.157-.343-.155-.346-.154-.347-.152-.35-.149-.351-.148-.354-.146-.356-.144-.358-.142-.36-.14-.362-.139-.365-.136-.366-.135-.368-.132-.371-.131-.373-.129-.374-.126-.377-.125-.379-.123-.38-.122-.383-.119-.385-.117-.387-.116-.389-.113-.391-.112-.393-.11-.395-.107-.397-.106-.399-.104-.401-.103-.402-.1-.405-.098-.407-.096-.409-.095-.411-.093-.412-.09-.415-.089-.416-.087-.419-.085-.42-.083-.422-.082-.424-.079-.426-.077-.428-.076-.43-.074-.431-.071-.434-.07-.435-.068-.437-.066-.439-.064-.441-.063-.443-.06-.444-.059-.446-.056-.448-.055-.45-.053-.452-.051-.453-.049-.455-.048-.457-.045-.459-.044-.46-.041-.462-.04-.464-.038-.465-.036-.467-.034-.469-.032-.471-.031-.472-.028-.474-.027-.475-.025-.477-.023-.479-.021-.481-.02-.482-.017-.483-.016-.486-.013-.487-.012-.488-.01-.49-.009-.492-.006-.493-.005-.495-.002-.497-.001-.558.001zm55.169 8.906l-.025-.025-.002-.001.027.026zm-.027-.026l-.001-.002-.028-.022.029.024z" fill="#fff"/></svg>