<svg viewBox="0 0 500 500" xmlns="http://www.w3.org/2000/svg" fill-rule="evenodd" clip-rule="evenodd" stroke-linejoin="round" stroke-miterlimit="1.414"><path d="M250 5C116.364 5 5 116.364 5 250s111.364 245 245 245 245-111.364 245-245S383.636 5 250 5zm11.136 356.364c0 5.568-5.568 11.136-11.136 11.136s-11.136-5.568-11.136-11.136v-22.273c0-5.568 5.568-11.136 11.136-11.136s11.136 5.568 11.136 11.136v22.273zm0-75.171c0 5.568-5.568 11.137-11.136 11.137s-11.136-5.569-11.136-11.137V141.42c0-5.568 5.568-11.136 11.136-11.136s11.136 5.568 11.136 11.136v144.773z" fill="#d70000" fill-rule="nonzero"/></svg>