<svg viewBox="0 0 500 500" xmlns="http://www.w3.org/2000/svg" fill-rule="evenodd" clip-rule="evenodd" stroke-linejoin="round" stroke-miterlimit="1.414"><g fill="#9c0"><path d="M311.721 148.231c-17.904-11.308-39.577-17.904-61.25-17.904-62.192 0-113.077 50.885-113.077 113.077 0 21.673 6.596 42.404 17.904 61.25l49 90.461h96.115l45.231-90.461c33.923-52.769 17.904-122.5-33.923-156.423zm16.962 146.057l-40.52 81.039h-71.615l-44.288-81.039v-.942C144.933 250 157.183 192.519 200.529 165.192c43.346-27.327 100.827-15.077 128.154 28.27 18.846 31.096 18.846 69.73 0 100.826z" fill-rule="nonzero"/><path d="M179.798 235.865v3.77h20.731v-3.77c0-23.557 18.846-41.461 41.461-41.461h3.77v-20.731h-3.77c-33.923 0-62.192 27.327-62.192 62.192z" fill-rule="nonzero"/><path d="M203.356 403.596h96.115v16.962h-96.115zm0 24.5h96.115v16.962h-96.115zm0 24.5h96.115v16.962h-96.115zm21.673 25.442h53.712V495h-53.712z"/><path d="M261.779 5h-23.558v76.327h23.558V5zm165.846 77.269l-11.308-11.307-1.884-2.827-52.77 52.769 16.02 16.019 52.769-52.769-2.827-1.885zM405.01 236.808v22.615h71.615v-22.615H405.01zm71.615 0h.942-.942zm-454.192 6.596v16.961h71.615V237.75H22.433v5.654zM85.567 68.135l-2.827 1.884-11.307 11.308-1.885 2.827 52.769 52.769 16.02-16.019-52.77-52.769z" fill-rule="nonzero"/></g></svg>