<?xml version="1.0" encoding="utf-8"?>
<!-- Generator: Adobe Illustrator 23.0.3, SVG Export Plug-In . SVG Version: 6.00 Build 0)  -->
<svg version="1.1" id="Calque_1" xmlns="http://www.w3.org/2000/svg" xmlns:xlink="http://www.w3.org/1999/xlink" x="0px" y="0px"
	 viewBox="0 0 216 40" style="enable-background:new 0 0 216 40;" xml:space="preserve">
<style type="text/css">
	.st0{fill:#006A4E;}
	.st1{fill:#019597;}
	.st2{fill:#E62333;}
</style>
<g>
	<polygon class="st0" points="34.2,29.8 34.2,32.6 3.1,32.6 3.1,29.8 34.2,29.8 	"/>
	<path class="st0" d="M22.9,14.7l2.1,5.3l3.7-1.9l-3.2-7.1h-4.7l-6.6,12.2c0,0,3.2-0.1,5.3-1.7C20,21.1,21.5,17.3,22.9,14.7
		L22.9,14.7L22.9,14.7L22.9,14.7z"/>
	<path class="st1" d="M28.7,18L25,19.9c-3.2,1.6-6.2,3-7.8,3.5c-4.3,1.2-9.5,2-11.4,0.3c-1.8-1.6,2.3-8.1,10-9.6
		c1.2-0.3,2-0.2,2-0.2c0,0-0.5-2.2-0.9-2.7c-0.6-0.7-1.1-0.8-2-0.7c-1.7,0.1-8.7,2-11.5,7.9c-1.6,3.4,0.5,6.7,1.9,7.7
		c0.6,0.5,4.6,4.1,13.9,0.4c9.2-3.6,17.4-9.2,17.4-9.2v-3.7C36.5,13.6,32.9,15.7,28.7,18L28.7,18z"/>
	<path class="st0" d="M26.3,23.3c0.3,0.8,1.3,3.1,1.6,3.8c0.3,0.7,1.2,0.7,1.2,0.7h4.3l-3.2-6.6C28.9,21.9,27.6,22.6,26.3,23.3
		L26.3,23.3z"/>
	<path class="st2" d="M36.5,12.2c0,0-4.9,2.8-6,3.2c-1.1,0.4-1.4-0.1-1.6-0.3c-0.3-0.4-0.7-1.9-0.8-2.1c0,0,0.3,0.1,0.9-0.1
		c0.7-0.2,7.5-4,7.5-4V12.2L36.5,12.2L36.5,12.2z"/>
	<path class="st0" d="M51.4,10.7c1.6,0,3.3,0.5,4.7,1.5L55,13.5c-1.1-0.8-2.1-1.2-3.5-1.2c-2.5,0-4.4,1.6-4.4,3.8s1.9,3.8,4.4,3.8
		c1.5,0,2.5-0.5,3.7-1.3l1.1,1.4c-1.4,1-3.2,1.6-4.9,1.6c-3.4,0-6.6-2-6.6-5.5C44.7,12.7,47.9,10.7,51.4,10.7L51.4,10.7z"/>
	<path class="st0" d="M64,16.1c1.6,0,2.6-0.7,2.6-1.8c0-1.1-1-1.7-2.6-1.7h-3.3v3.5H64L64,16.1z M58.5,10.8h5.7
		c2.7,0,4.8,1.1,4.8,3.4c0,1.8-1.3,2.8-3.1,3.2l3.4,4h-2.6l-3.1-3.7h-2.8v3.7h-2.3V10.8L58.5,10.8z"/>
	<path class="st0" d="M78.8,7.8L77,9.7h-1.9l1.3-1.9H78.8L78.8,7.8z M71.5,18.3v-7.5h9.6v1.7h-7.3v2.5h6.7v1.6h-6.7v1.6
		c0,0.9,0.4,1.4,1.3,1.4h6.2v1.7h-6.7C72.6,21.4,71.5,20.3,71.5,18.3L71.5,18.3z"/>
	<path class="st0" d="M88.9,19.7c2.6,0,4.3-1.4,4.3-3.6c0-2.2-1.7-3.6-4.3-3.6h-2.7v7.2H88.9L88.9,19.7z M84,10.8h4.8
		c4.1,0,6.8,2.1,6.8,5.3c0,3.2-2.7,5.3-6.8,5.3H84V10.8L84,10.8z"/>
	<polygon class="st0" points="97.9,10.8 100.2,10.8 100.2,21.4 97.9,21.4 97.9,10.8 	"/>
	<polygon class="st0" points="102.4,12.5 102.4,10.8 112.8,10.8 112.8,12.5 108.7,12.5 108.7,21.4 106.5,21.4 106.5,12.5 
		102.4,12.5 	"/>
	<path class="st0" d="M127,17.2l-2.1-4.2l-2.1,4.2H127L127,17.2z M127.8,18.8H122l-1.3,2.5h-2.3l5.5-10.5h2.3l5.5,10.5h-2.6
		L127.8,18.8L127.8,18.8z"/>
	<path class="st0" d="M139,10.7c1.6,0,3.3,0.5,4.7,1.5l-1.1,1.4c-1.1-0.8-2.1-1.2-3.5-1.2c-2.5,0-4.4,1.5-4.4,3.8
		c0,2.2,1.7,3.8,4.4,3.8c1.2,0,2.2-0.3,3-0.8v-2h-3.2v-1.6h5.4v4.4c-1.3,0.9-3.1,1.7-5.3,1.7c-4,0-6.6-2.4-6.6-5.5
		C132.4,12.7,135.6,10.7,139,10.7L139,10.7z"/>
	<path class="st0" d="M152.7,16.1c1.6,0,2.6-0.7,2.6-1.8c0-1.1-1-1.7-2.6-1.7h-3.3v3.5H152.7L152.7,16.1z M147.2,10.8h5.7
		c2.7,0,4.8,1.1,4.8,3.4c0,1.8-1.3,2.8-3.1,3.2l3.4,4h-2.6l-3.1-3.7h-2.8v3.7h-2.3V10.8L147.2,10.8z"/>
	<polygon class="st0" points="160.5,10.8 162.8,10.8 162.8,21.4 160.5,21.4 160.5,10.8 	"/>
	<path class="st0" d="M172,10.7c1.6,0,3.3,0.5,4.7,1.5l-1.1,1.4c-1.1-0.8-2.1-1.2-3.5-1.2c-2.5,0-4.4,1.6-4.4,3.8s1.9,3.8,4.4,3.8
		c1.5,0,2.5-0.5,3.7-1.3l1.1,1.4c-1.4,1-3.2,1.6-4.9,1.6c-3.4,0-6.6-2-6.6-5.5C165.4,12.7,168.6,10.7,172,10.7L172,10.7z"/>
	<path class="st0" d="M180.4,16.1c0,2.1,1.8,3.8,4.3,3.8c2.6,0,4.3-1.7,4.3-3.8c0-2.1-1.8-3.8-4.3-3.8
		C182.1,12.3,180.4,14,180.4,16.1L180.4,16.1z M178,16.1c0-3,2.8-5.5,6.7-5.5c3.9,0,6.7,2.5,6.7,5.5c0,3-2.8,5.5-6.7,5.5
		C180.8,21.6,178,19.1,178,16.1L178,16.1z"/>
	<polygon class="st0" points="193.7,10.8 196,10.8 196,19.7 202.7,19.7 202.7,21.4 193.7,21.4 193.7,10.8 	"/>
	<path class="st0" d="M204.4,18.3v-7.5h9.6v1.7h-7.3v2.5h6.7v1.6h-6.7v1.6c0,0.9,0.4,1.4,1.3,1.4h6.2v1.7h-6.7
		C205.5,21.4,204.4,20.3,204.4,18.3L204.4,18.3z"/>
	<path class="st0" d="M50.2,24.5c1.2,0,2.5,0.4,3.5,1.1l-0.8,1c-0.8-0.6-1.6-0.9-2.6-0.9c-1.9,0-3.3,1.2-3.3,2.9
		c0,1.7,1.5,2.9,3.3,2.9c1.1,0,1.9-0.4,2.8-1l0.8,1c-1.1,0.8-2.4,1.2-3.7,1.2c-2.6,0-5-1.5-5-4.1S47.6,24.5,50.2,24.5L50.2,24.5z"/>
	<path class="st0" d="M55.6,30.3v-5.6h7.2v1.3h-5.5v1.9h5v1.2h-5v1.2c0,0.7,0.3,1,1,1h4.6v1.3h-5.1C56.4,32.6,55.6,31.7,55.6,30.3
		L55.6,30.3z"/>
	<polygon class="st0" points="66.8,26.9 66.8,32.6 65.1,32.6 65.1,24.6 66.8,24.6 71.7,30.3 71.7,24.6 73.4,24.6 73.4,32.6 
		71.7,32.6 66.8,26.9 	"/>
	<polygon class="st0" points="75.3,25.9 75.3,24.6 83,24.6 83,25.9 80,25.9 80,32.6 78.3,32.6 78.3,25.9 75.3,25.9 	"/>
	<path class="st0" d="M89.1,28.6c1.2,0,2-0.5,2-1.4c0-0.8-0.7-1.3-2-1.3h-2.5v2.7H89.1L89.1,28.6z M84.9,24.6h4.3
		c2,0,3.6,0.8,3.6,2.5c0,1.4-1,2.1-2.3,2.4l2.6,3h-2l-2.4-2.8h-2.1v2.8h-1.7V24.6L84.9,24.6z"/>
	<path class="st0" d="M94.9,30.3v-5.6h7.2v1.3h-5.5v1.9h5v1.2h-5v1.2c0,0.7,0.3,1,1,1h4.6v1.3h-5.1C95.7,32.6,94.9,31.7,94.9,30.3
		L94.9,30.3z"/>
	<path class="st0" d="M109.6,28.6c0,1.6,1.3,2.9,3.3,2.9c1.9,0,3.3-1.3,3.3-2.9c0-1.6-1.3-2.9-3.3-2.9C111,25.7,109.6,27,109.6,28.6
		L109.6,28.6z M107.9,28.6c0-2.2,2.1-4.1,5-4.1c2.9,0,5,1.9,5,4.1c0,2.2-2.1,4.1-5,4.1C110,32.7,107.9,30.8,107.9,28.6L107.9,28.6z"
		/>
	<path class="st0" d="M119.7,29v-4.4h1.7v4.5c0,1.4,1,2.4,2.5,2.4c1.5,0,2.5-1,2.5-2.4v-4.5h1.6V29c0,2.2-1.7,3.7-4.1,3.7
		C121.3,32.7,119.7,31.2,119.7,29L119.7,29z"/>
	<path class="st0" d="M130.2,30.3v-5.6h7.2v1.3h-5.5v1.9h5v1.2h-5v1.2c0,0.7,0.3,1,1,1h4.6v1.3h-5.1C131,32.6,130.2,31.7,130.2,30.3
		L130.2,30.3z"/>
	<path class="st0" d="M139.2,31.4l0.8-1.1c1,0.8,2.4,1.1,3.6,1.1c1.3,0,2.3-0.4,2.3-1c0-0.6-1.1-0.8-2.5-1.1c-1.8-0.4-4-0.8-4-2.4
		c0-1.5,1.8-2.4,3.9-2.4c1.4,0,2.9,0.4,4,1.1l-0.8,1.1c-0.9-0.7-2.1-1-3.2-1c-1.1,0-2.2,0.4-2.2,0.9c0,0.5,1,0.7,2.3,1
		c1.8,0.4,4.1,0.8,4.1,2.6c0,1.6-1.9,2.5-4,2.5C142,32.7,140.4,32.2,139.2,31.4L139.2,31.4z"/>
	<polygon class="st0" points="148.9,25.9 148.9,24.6 156.7,24.6 156.7,25.9 153.6,25.9 153.6,32.6 151.9,32.6 151.9,25.9 
		148.9,25.9 	"/>
</g>
</svg>
